# xmcd
#
# Track frame offsets:
#	150
#	19555
#	50125
#	70225
#
# Disc length: 1171 seconds
# Revision: 0
# Processed by: cddbd v1.5.2PL0 Copyright (c) Steve Scherf et al.
# Submitted via: dBpowerAMP V12.0
#
DISCID=30049104
DTITLE=Chesney Hawkes - What's Wrong With This Picture?
DYEAR=1993
DGENRE=Pop
TTITLE0=What's Wrong With This Picture? [Original Version]
TTITLE1=What's Wrong With This Picture? [12” Dance Mix]
TTITLE2=What's Wrong With This Picture? [Dakeyne's Interference Mix]
TTITLE3=Friends And Lovers
EXTD=
EXTT0=
EXTT1=
EXTT2=
EXTT3=
PLAYORDER=
